%TF.GenerationSoftware,KiCad,Pcbnew,(5.1.6-0-10_14)*%
%TF.CreationDate,2020-10-01T20:26:03+09:00*%
%TF.ProjectId,hawk,6861776b-2e6b-4696-9361-645f70636258,rev?*%
%TF.SameCoordinates,Original*%
%TF.FileFunction,Copper,L2,Bot*%
%TF.FilePolarity,Positive*%
%FSLAX46Y46*%
G04 Gerber Fmt 4.6, Leading zero omitted, Abs format (unit mm)*
G04 Created by KiCad (PCBNEW (5.1.6-0-10_14)) date 2020-10-01 20:26:03*
%MOMM*%
%LPD*%
G01*
G04 APERTURE LIST*
%TA.AperFunction,ComponentPad*%
%ADD10C,2.000000*%
%TD*%
%TA.AperFunction,ComponentPad*%
%ADD11O,1.700000X1.700000*%
%TD*%
%TA.AperFunction,ComponentPad*%
%ADD12R,1.700000X1.700000*%
%TD*%
%TA.AperFunction,ViaPad*%
%ADD13C,0.800000*%
%TD*%
%TA.AperFunction,Conductor*%
%ADD14C,0.250000*%
%TD*%
G04 APERTURE END LIST*
D10*
%TO.P,SW1,1*%
%TO.N,reset*%
X118260000Y-88900000D03*
%TO.P,SW1,2*%
%TO.N,GND*%
X118260000Y-93400000D03*
%TO.P,SW1,1*%
%TO.N,reset*%
X111760000Y-88900000D03*
%TO.P,SW1,2*%
%TO.N,GND*%
X111760000Y-93400000D03*
%TD*%
D11*
%TO.P,J3,2*%
%TO.N,GND*%
X104140000Y-100330000D03*
D12*
%TO.P,J3,1*%
%TO.N,+BATT*%
X104140000Y-97790000D03*
%TD*%
D11*
%TO.P,J2,5*%
%TO.N,GPIO_5*%
X127000000Y-116840000D03*
%TO.P,J2,4*%
%TO.N,GPIO_6*%
X127000000Y-114300000D03*
%TO.P,J2,3*%
%TO.N,GPIO_7*%
X127000000Y-111760000D03*
%TO.P,J2,2*%
%TO.N,GPIO_8*%
X127000000Y-109220000D03*
D12*
%TO.P,J2,1*%
%TO.N,GND*%
X127000000Y-106680000D03*
%TD*%
D11*
%TO.P,J1,5*%
%TO.N,GPIO_4*%
X104140000Y-116840000D03*
%TO.P,J1,4*%
%TO.N,GPIO_3*%
X104140000Y-114300000D03*
%TO.P,J1,3*%
%TO.N,GPIO_2*%
X104140000Y-111760000D03*
%TO.P,J1,2*%
%TO.N,GPIO_1*%
X104140000Y-109220000D03*
D12*
%TO.P,J1,1*%
%TO.N,+3V3*%
X104140000Y-106680000D03*
%TD*%
D11*
%TO.P,J0,6*%
%TO.N,GND*%
X113030000Y-124460000D03*
%TO.P,J0,5*%
%TO.N,reset*%
X113030000Y-121920000D03*
%TO.P,J0,4*%
%TO.N,Net-(J0-Pad4)*%
X115570000Y-124460000D03*
%TO.P,J0,3*%
%TO.N,SWCLK*%
X115570000Y-121920000D03*
%TO.P,J0,2*%
%TO.N,+3V3*%
X118110000Y-124460000D03*
D12*
%TO.P,J0,1*%
%TO.N,SWDIO*%
X118110000Y-121920000D03*
%TD*%
D13*
%TO.N,GND*%
X104140000Y-87630000D03*
X104140000Y-90170000D03*
X104140000Y-92710000D03*
X104140000Y-95250000D03*
X127000000Y-87630000D03*
X127000000Y-90170000D03*
X127000000Y-92710000D03*
X127000000Y-95250000D03*
X107950000Y-86360000D03*
X110490000Y-86360000D03*
X114300000Y-86360000D03*
X118110000Y-86360000D03*
X120650000Y-86360000D03*
X123190000Y-86360000D03*
X125730000Y-86360000D03*
X105410000Y-86360000D03*
%TO.N,+3V3*%
X115824000Y-111760000D03*
X108966000Y-114808000D03*
%TO.N,GPIO_3*%
X115570000Y-106680000D03*
%TO.N,GPIO_2*%
X106680000Y-111760000D03*
X115570000Y-110744000D03*
%TD*%
D14*
%TO.N,+3V3*%
X108966000Y-114808000D02*
X112776000Y-114808000D01*
X115824000Y-111760000D02*
X112776000Y-114808000D01*
%TO.N,GPIO_3*%
X115570000Y-106680000D02*
X107950000Y-114300000D01*
X107950000Y-114300000D02*
X104140000Y-114300000D01*
%TO.N,GPIO_2*%
X112485001Y-105954999D02*
X115918001Y-105954999D01*
X115918001Y-105954999D02*
X116295001Y-106331999D01*
X106680000Y-111760000D02*
X112485001Y-105954999D01*
X116295001Y-106331999D02*
X116295001Y-110018999D01*
X116295001Y-110018999D02*
X115570000Y-110744000D01*
X115570000Y-110744000D02*
X115570000Y-110744000D01*
%TD*%
M02*
