M48
; DRILL file {KiCad (5.1.6-0-10_14)} date Thursday, October 01, 2020 at 08:26:14 PM
; FORMAT={-:-/ absolute / inch / decimal}
; #@! TF.CreationDate,2020-10-01T20:26:14+09:00
; #@! TF.GenerationSoftware,Kicad,Pcbnew,(5.1.6-0-10_14)
; #@! TF.FileFunction,Plated,1,2,PTH
FMAT,2
INCH
T1C0.0157
T2C0.0394
T3C0.0433
%
G90
G05
T1
X4.1Y-3.45
X4.1Y-3.55
X4.1Y-3.65
X4.1Y-3.75
X4.15Y-3.4
X4.2Y-4.4
X4.25Y-3.4
X4.29Y-4.52
X4.35Y-3.4
X4.5Y-3.4
X4.55Y-4.2
X4.55Y-4.36
X4.56Y-4.4
X4.65Y-3.4
X4.75Y-3.4
X4.85Y-3.4
X4.95Y-3.4
X5.0Y-3.45
X5.0Y-3.55
X5.0Y-3.65
X5.0Y-3.75
T2
X4.1Y-3.85
X4.1Y-3.95
X5.0Y-4.2
X5.0Y-4.3
X5.0Y-4.4
X5.0Y-4.5
X5.0Y-4.6
X4.45Y-4.8
X4.45Y-4.9
X4.55Y-4.8
X4.55Y-4.9
X4.65Y-4.8
X4.65Y-4.9
X4.1Y-4.2
X4.1Y-4.3
X4.1Y-4.4
X4.1Y-4.5
X4.1Y-4.6
T3
X4.4Y-3.5
X4.4Y-3.6772
X4.6559Y-3.5
X4.6559Y-3.6772
T0
M30
