%TF.GenerationSoftware,KiCad,Pcbnew,(5.1.6-0-10_14)*%
%TF.CreationDate,2020-10-01T20:29:49+09:00*%
%TF.ProjectId,hawk,6861776b-2e6b-4696-9361-645f70636258,rev?*%
%TF.SameCoordinates,Original*%
%TF.FileFunction,Paste,Top*%
%TF.FilePolarity,Positive*%
%FSLAX46Y46*%
G04 Gerber Fmt 4.6, Leading zero omitted, Abs format (unit mm)*
G04 Created by KiCad (PCBNEW (5.1.6-0-10_14)) date 2020-10-01 20:29:49*
%MOMM*%
%LPD*%
G01*
G04 APERTURE LIST*
%ADD10R,0.800000X0.900000*%
G04 APERTURE END LIST*
D10*
%TO.C,U2*%
X124460000Y-98790000D03*
X123510000Y-96790000D03*
X125410000Y-96790000D03*
%TD*%
%TO.C,U1*%
G36*
G01*
X117070000Y-109370000D02*
X117070000Y-109070000D01*
G75*
G02*
X117220000Y-108920000I150000J0D01*
G01*
X118870000Y-108920000D01*
G75*
G02*
X119020000Y-109070000I0J-150000D01*
G01*
X119020000Y-109370000D01*
G75*
G02*
X118870000Y-109520000I-150000J0D01*
G01*
X117220000Y-109520000D01*
G75*
G02*
X117070000Y-109370000I0J150000D01*
G01*
G37*
G36*
G01*
X117070000Y-110640000D02*
X117070000Y-110340000D01*
G75*
G02*
X117220000Y-110190000I150000J0D01*
G01*
X118870000Y-110190000D01*
G75*
G02*
X119020000Y-110340000I0J-150000D01*
G01*
X119020000Y-110640000D01*
G75*
G02*
X118870000Y-110790000I-150000J0D01*
G01*
X117220000Y-110790000D01*
G75*
G02*
X117070000Y-110640000I0J150000D01*
G01*
G37*
G36*
G01*
X117070000Y-111910000D02*
X117070000Y-111610000D01*
G75*
G02*
X117220000Y-111460000I150000J0D01*
G01*
X118870000Y-111460000D01*
G75*
G02*
X119020000Y-111610000I0J-150000D01*
G01*
X119020000Y-111910000D01*
G75*
G02*
X118870000Y-112060000I-150000J0D01*
G01*
X117220000Y-112060000D01*
G75*
G02*
X117070000Y-111910000I0J150000D01*
G01*
G37*
G36*
G01*
X117070000Y-113180000D02*
X117070000Y-112880000D01*
G75*
G02*
X117220000Y-112730000I150000J0D01*
G01*
X118870000Y-112730000D01*
G75*
G02*
X119020000Y-112880000I0J-150000D01*
G01*
X119020000Y-113180000D01*
G75*
G02*
X118870000Y-113330000I-150000J0D01*
G01*
X117220000Y-113330000D01*
G75*
G02*
X117070000Y-113180000I0J150000D01*
G01*
G37*
G36*
G01*
X117070000Y-114450000D02*
X117070000Y-114150000D01*
G75*
G02*
X117220000Y-114000000I150000J0D01*
G01*
X118870000Y-114000000D01*
G75*
G02*
X119020000Y-114150000I0J-150000D01*
G01*
X119020000Y-114450000D01*
G75*
G02*
X118870000Y-114600000I-150000J0D01*
G01*
X117220000Y-114600000D01*
G75*
G02*
X117070000Y-114450000I0J150000D01*
G01*
G37*
G36*
G01*
X117070000Y-115720000D02*
X117070000Y-115420000D01*
G75*
G02*
X117220000Y-115270000I150000J0D01*
G01*
X118870000Y-115270000D01*
G75*
G02*
X119020000Y-115420000I0J-150000D01*
G01*
X119020000Y-115720000D01*
G75*
G02*
X118870000Y-115870000I-150000J0D01*
G01*
X117220000Y-115870000D01*
G75*
G02*
X117070000Y-115720000I0J150000D01*
G01*
G37*
G36*
G01*
X117070000Y-116990000D02*
X117070000Y-116690000D01*
G75*
G02*
X117220000Y-116540000I150000J0D01*
G01*
X118870000Y-116540000D01*
G75*
G02*
X119020000Y-116690000I0J-150000D01*
G01*
X119020000Y-116990000D01*
G75*
G02*
X118870000Y-117140000I-150000J0D01*
G01*
X117220000Y-117140000D01*
G75*
G02*
X117070000Y-116990000I0J150000D01*
G01*
G37*
G36*
G01*
X112120000Y-116990000D02*
X112120000Y-116690000D01*
G75*
G02*
X112270000Y-116540000I150000J0D01*
G01*
X113920000Y-116540000D01*
G75*
G02*
X114070000Y-116690000I0J-150000D01*
G01*
X114070000Y-116990000D01*
G75*
G02*
X113920000Y-117140000I-150000J0D01*
G01*
X112270000Y-117140000D01*
G75*
G02*
X112120000Y-116990000I0J150000D01*
G01*
G37*
G36*
G01*
X112120000Y-115720000D02*
X112120000Y-115420000D01*
G75*
G02*
X112270000Y-115270000I150000J0D01*
G01*
X113920000Y-115270000D01*
G75*
G02*
X114070000Y-115420000I0J-150000D01*
G01*
X114070000Y-115720000D01*
G75*
G02*
X113920000Y-115870000I-150000J0D01*
G01*
X112270000Y-115870000D01*
G75*
G02*
X112120000Y-115720000I0J150000D01*
G01*
G37*
G36*
G01*
X112120000Y-114450000D02*
X112120000Y-114150000D01*
G75*
G02*
X112270000Y-114000000I150000J0D01*
G01*
X113920000Y-114000000D01*
G75*
G02*
X114070000Y-114150000I0J-150000D01*
G01*
X114070000Y-114450000D01*
G75*
G02*
X113920000Y-114600000I-150000J0D01*
G01*
X112270000Y-114600000D01*
G75*
G02*
X112120000Y-114450000I0J150000D01*
G01*
G37*
G36*
G01*
X112120000Y-113180000D02*
X112120000Y-112880000D01*
G75*
G02*
X112270000Y-112730000I150000J0D01*
G01*
X113920000Y-112730000D01*
G75*
G02*
X114070000Y-112880000I0J-150000D01*
G01*
X114070000Y-113180000D01*
G75*
G02*
X113920000Y-113330000I-150000J0D01*
G01*
X112270000Y-113330000D01*
G75*
G02*
X112120000Y-113180000I0J150000D01*
G01*
G37*
G36*
G01*
X112120000Y-111910000D02*
X112120000Y-111610000D01*
G75*
G02*
X112270000Y-111460000I150000J0D01*
G01*
X113920000Y-111460000D01*
G75*
G02*
X114070000Y-111610000I0J-150000D01*
G01*
X114070000Y-111910000D01*
G75*
G02*
X113920000Y-112060000I-150000J0D01*
G01*
X112270000Y-112060000D01*
G75*
G02*
X112120000Y-111910000I0J150000D01*
G01*
G37*
G36*
G01*
X112120000Y-110640000D02*
X112120000Y-110340000D01*
G75*
G02*
X112270000Y-110190000I150000J0D01*
G01*
X113920000Y-110190000D01*
G75*
G02*
X114070000Y-110340000I0J-150000D01*
G01*
X114070000Y-110640000D01*
G75*
G02*
X113920000Y-110790000I-150000J0D01*
G01*
X112270000Y-110790000D01*
G75*
G02*
X112120000Y-110640000I0J150000D01*
G01*
G37*
G36*
G01*
X112120000Y-109370000D02*
X112120000Y-109070000D01*
G75*
G02*
X112270000Y-108920000I150000J0D01*
G01*
X113920000Y-108920000D01*
G75*
G02*
X114070000Y-109070000I0J-150000D01*
G01*
X114070000Y-109370000D01*
G75*
G02*
X113920000Y-109520000I-150000J0D01*
G01*
X112270000Y-109520000D01*
G75*
G02*
X112120000Y-109370000I0J150000D01*
G01*
G37*
%TD*%
%TO.C,R3*%
G36*
G01*
X124910000Y-103320001D02*
X124910000Y-102419999D01*
G75*
G02*
X125159999Y-102170000I249999J0D01*
G01*
X125810001Y-102170000D01*
G75*
G02*
X126060000Y-102419999I0J-249999D01*
G01*
X126060000Y-103320001D01*
G75*
G02*
X125810001Y-103570000I-249999J0D01*
G01*
X125159999Y-103570000D01*
G75*
G02*
X124910000Y-103320001I0J249999D01*
G01*
G37*
G36*
G01*
X122860000Y-103320001D02*
X122860000Y-102419999D01*
G75*
G02*
X123109999Y-102170000I249999J0D01*
G01*
X123760001Y-102170000D01*
G75*
G02*
X124010000Y-102419999I0J-249999D01*
G01*
X124010000Y-103320001D01*
G75*
G02*
X123760001Y-103570000I-249999J0D01*
G01*
X123109999Y-103570000D01*
G75*
G02*
X122860000Y-103320001I0J249999D01*
G01*
G37*
%TD*%
%TO.C,R2*%
G36*
G01*
X109425000Y-103320001D02*
X109425000Y-102419999D01*
G75*
G02*
X109674999Y-102170000I249999J0D01*
G01*
X110325001Y-102170000D01*
G75*
G02*
X110575000Y-102419999I0J-249999D01*
G01*
X110575000Y-103320001D01*
G75*
G02*
X110325001Y-103570000I-249999J0D01*
G01*
X109674999Y-103570000D01*
G75*
G02*
X109425000Y-103320001I0J249999D01*
G01*
G37*
G36*
G01*
X107375000Y-103320001D02*
X107375000Y-102419999D01*
G75*
G02*
X107624999Y-102170000I249999J0D01*
G01*
X108275001Y-102170000D01*
G75*
G02*
X108525000Y-102419999I0J-249999D01*
G01*
X108525000Y-103320001D01*
G75*
G02*
X108275001Y-103570000I-249999J0D01*
G01*
X107624999Y-103570000D01*
G75*
G02*
X107375000Y-103320001I0J249999D01*
G01*
G37*
%TD*%
%TO.C,R1*%
G36*
G01*
X114750000Y-99510001D02*
X114750000Y-98609999D01*
G75*
G02*
X114999999Y-98360000I249999J0D01*
G01*
X115650001Y-98360000D01*
G75*
G02*
X115900000Y-98609999I0J-249999D01*
G01*
X115900000Y-99510001D01*
G75*
G02*
X115650001Y-99760000I-249999J0D01*
G01*
X114999999Y-99760000D01*
G75*
G02*
X114750000Y-99510001I0J249999D01*
G01*
G37*
G36*
G01*
X112700000Y-99510001D02*
X112700000Y-98609999D01*
G75*
G02*
X112949999Y-98360000I249999J0D01*
G01*
X113600001Y-98360000D01*
G75*
G02*
X113850000Y-98609999I0J-249999D01*
G01*
X113850000Y-99510001D01*
G75*
G02*
X113600001Y-99760000I-249999J0D01*
G01*
X112949999Y-99760000D01*
G75*
G02*
X112700000Y-99510001I0J249999D01*
G01*
G37*
%TD*%
%TO.C,D1*%
G36*
G01*
X109425000Y-99510001D02*
X109425000Y-98609999D01*
G75*
G02*
X109674999Y-98360000I249999J0D01*
G01*
X110325001Y-98360000D01*
G75*
G02*
X110575000Y-98609999I0J-249999D01*
G01*
X110575000Y-99510001D01*
G75*
G02*
X110325001Y-99760000I-249999J0D01*
G01*
X109674999Y-99760000D01*
G75*
G02*
X109425000Y-99510001I0J249999D01*
G01*
G37*
G36*
G01*
X107375000Y-99510001D02*
X107375000Y-98609999D01*
G75*
G02*
X107624999Y-98360000I249999J0D01*
G01*
X108275001Y-98360000D01*
G75*
G02*
X108525000Y-98609999I0J-249999D01*
G01*
X108525000Y-99510001D01*
G75*
G02*
X108275001Y-99760000I-249999J0D01*
G01*
X107624999Y-99760000D01*
G75*
G02*
X107375000Y-99510001I0J249999D01*
G01*
G37*
%TD*%
%TO.C,C3*%
G36*
G01*
X114505000Y-103320001D02*
X114505000Y-102419999D01*
G75*
G02*
X114754999Y-102170000I249999J0D01*
G01*
X115405001Y-102170000D01*
G75*
G02*
X115655000Y-102419999I0J-249999D01*
G01*
X115655000Y-103320001D01*
G75*
G02*
X115405001Y-103570000I-249999J0D01*
G01*
X114754999Y-103570000D01*
G75*
G02*
X114505000Y-103320001I0J249999D01*
G01*
G37*
G36*
G01*
X112455000Y-103320001D02*
X112455000Y-102419999D01*
G75*
G02*
X112704999Y-102170000I249999J0D01*
G01*
X113355001Y-102170000D01*
G75*
G02*
X113605000Y-102419999I0J-249999D01*
G01*
X113605000Y-103320001D01*
G75*
G02*
X113355001Y-103570000I-249999J0D01*
G01*
X112704999Y-103570000D01*
G75*
G02*
X112455000Y-103320001I0J249999D01*
G01*
G37*
%TD*%
%TO.C,C2*%
G36*
G01*
X119585000Y-103320001D02*
X119585000Y-102419999D01*
G75*
G02*
X119834999Y-102170000I249999J0D01*
G01*
X120485001Y-102170000D01*
G75*
G02*
X120735000Y-102419999I0J-249999D01*
G01*
X120735000Y-103320001D01*
G75*
G02*
X120485001Y-103570000I-249999J0D01*
G01*
X119834999Y-103570000D01*
G75*
G02*
X119585000Y-103320001I0J249999D01*
G01*
G37*
G36*
G01*
X117535000Y-103320001D02*
X117535000Y-102419999D01*
G75*
G02*
X117784999Y-102170000I249999J0D01*
G01*
X118435001Y-102170000D01*
G75*
G02*
X118685000Y-102419999I0J-249999D01*
G01*
X118685000Y-103320001D01*
G75*
G02*
X118435001Y-103570000I-249999J0D01*
G01*
X117784999Y-103570000D01*
G75*
G02*
X117535000Y-103320001I0J249999D01*
G01*
G37*
%TD*%
%TO.C,C1*%
G36*
G01*
X119830000Y-99510001D02*
X119830000Y-98609999D01*
G75*
G02*
X120079999Y-98360000I249999J0D01*
G01*
X120730001Y-98360000D01*
G75*
G02*
X120980000Y-98609999I0J-249999D01*
G01*
X120980000Y-99510001D01*
G75*
G02*
X120730001Y-99760000I-249999J0D01*
G01*
X120079999Y-99760000D01*
G75*
G02*
X119830000Y-99510001I0J249999D01*
G01*
G37*
G36*
G01*
X117780000Y-99510001D02*
X117780000Y-98609999D01*
G75*
G02*
X118029999Y-98360000I249999J0D01*
G01*
X118680001Y-98360000D01*
G75*
G02*
X118930000Y-98609999I0J-249999D01*
G01*
X118930000Y-99510001D01*
G75*
G02*
X118680001Y-99760000I-249999J0D01*
G01*
X118029999Y-99760000D01*
G75*
G02*
X117780000Y-99510001I0J249999D01*
G01*
G37*
%TD*%
M02*
