%TF.GenerationSoftware,KiCad,Pcbnew,(5.1.6-0-10_14)*%
%TF.CreationDate,2020-10-01T20:29:49+09:00*%
%TF.ProjectId,hawk,6861776b-2e6b-4696-9361-645f70636258,rev?*%
%TF.SameCoordinates,Original*%
%TF.FileFunction,Legend,Top*%
%TF.FilePolarity,Positive*%
%FSLAX46Y46*%
G04 Gerber Fmt 4.6, Leading zero omitted, Abs format (unit mm)*
G04 Created by KiCad (PCBNEW (5.1.6-0-10_14)) date 2020-10-01 20:29:49*
%MOMM*%
%LPD*%
G01*
G04 APERTURE LIST*
%ADD10C,0.120000*%
%ADD11C,0.150000*%
G04 APERTURE END LIST*
D10*
%TO.C,U2*%
X122880000Y-98550000D02*
X123810000Y-98550000D01*
X126040000Y-98550000D02*
X125110000Y-98550000D01*
X126040000Y-98550000D02*
X126040000Y-96390000D01*
X122880000Y-98550000D02*
X122880000Y-97090000D01*
%TO.C,U1*%
X115570000Y-117465000D02*
X117520000Y-117465000D01*
X115570000Y-117465000D02*
X113620000Y-117465000D01*
X115570000Y-108595000D02*
X117520000Y-108595000D01*
X115570000Y-108595000D02*
X112120000Y-108595000D01*
%TO.C,SW1*%
X112760000Y-94400000D02*
X117260000Y-94400000D01*
X111510000Y-90400000D02*
X111510000Y-91900000D01*
X117260000Y-87900000D02*
X112760000Y-87900000D01*
X118510000Y-91900000D02*
X118510000Y-90400000D01*
%TO.C,R3*%
X124198748Y-102160000D02*
X124721252Y-102160000D01*
X124198748Y-103580000D02*
X124721252Y-103580000D01*
%TO.C,R2*%
X108713748Y-102160000D02*
X109236252Y-102160000D01*
X108713748Y-103580000D02*
X109236252Y-103580000D01*
%TO.C,R1*%
X114038748Y-98350000D02*
X114561252Y-98350000D01*
X114038748Y-99770000D02*
X114561252Y-99770000D01*
%TO.C,J3*%
X102810000Y-101660000D02*
X105470000Y-101660000D01*
X102810000Y-99060000D02*
X102810000Y-101660000D01*
X105470000Y-99060000D02*
X105470000Y-101660000D01*
X102810000Y-99060000D02*
X105470000Y-99060000D01*
X102810000Y-97790000D02*
X102810000Y-96460000D01*
X102810000Y-96460000D02*
X104140000Y-96460000D01*
%TO.C,J2*%
X125670000Y-118170000D02*
X128330000Y-118170000D01*
X125670000Y-107950000D02*
X125670000Y-118170000D01*
X128330000Y-107950000D02*
X128330000Y-118170000D01*
X125670000Y-107950000D02*
X128330000Y-107950000D01*
X125670000Y-106680000D02*
X125670000Y-105350000D01*
X125670000Y-105350000D02*
X127000000Y-105350000D01*
%TO.C,J1*%
X102810000Y-118170000D02*
X105470000Y-118170000D01*
X102810000Y-107950000D02*
X102810000Y-118170000D01*
X105470000Y-107950000D02*
X105470000Y-118170000D01*
X102810000Y-107950000D02*
X105470000Y-107950000D01*
X102810000Y-106680000D02*
X102810000Y-105350000D01*
X102810000Y-105350000D02*
X104140000Y-105350000D01*
%TO.C,J0*%
X111700000Y-120590000D02*
X111700000Y-125790000D01*
X116840000Y-120590000D02*
X111700000Y-120590000D01*
X119440000Y-125790000D02*
X111700000Y-125790000D01*
X116840000Y-120590000D02*
X116840000Y-123190000D01*
X116840000Y-123190000D02*
X119440000Y-123190000D01*
X119440000Y-123190000D02*
X119440000Y-125790000D01*
X118110000Y-120590000D02*
X119440000Y-120590000D01*
X119440000Y-120590000D02*
X119440000Y-121920000D01*
%TO.C,D1*%
X109975000Y-98100000D02*
X107115000Y-98100000D01*
X107115000Y-98100000D02*
X107115000Y-100020000D01*
X107115000Y-100020000D02*
X109975000Y-100020000D01*
%TO.C,C3*%
X113793748Y-102160000D02*
X114316252Y-102160000D01*
X113793748Y-103580000D02*
X114316252Y-103580000D01*
%TO.C,C2*%
X118873748Y-102160000D02*
X119396252Y-102160000D01*
X118873748Y-103580000D02*
X119396252Y-103580000D01*
%TO.C,C1*%
X119118748Y-98350000D02*
X119641252Y-98350000D01*
X119118748Y-99770000D02*
X119641252Y-99770000D01*
%TO.C,U2*%
D11*
X126198095Y-97242380D02*
X126198095Y-98051904D01*
X126245714Y-98147142D01*
X126293333Y-98194761D01*
X126388571Y-98242380D01*
X126579047Y-98242380D01*
X126674285Y-98194761D01*
X126721904Y-98147142D01*
X126769523Y-98051904D01*
X126769523Y-97242380D01*
X127198095Y-97337619D02*
X127245714Y-97290000D01*
X127340952Y-97242380D01*
X127579047Y-97242380D01*
X127674285Y-97290000D01*
X127721904Y-97337619D01*
X127769523Y-97432857D01*
X127769523Y-97528095D01*
X127721904Y-97670952D01*
X127150476Y-98242380D01*
X127769523Y-98242380D01*
%TO.C,U1*%
X114808095Y-107202380D02*
X114808095Y-108011904D01*
X114855714Y-108107142D01*
X114903333Y-108154761D01*
X114998571Y-108202380D01*
X115189047Y-108202380D01*
X115284285Y-108154761D01*
X115331904Y-108107142D01*
X115379523Y-108011904D01*
X115379523Y-107202380D01*
X116379523Y-108202380D02*
X115808095Y-108202380D01*
X116093809Y-108202380D02*
X116093809Y-107202380D01*
X115998571Y-107345238D01*
X115903333Y-107440476D01*
X115808095Y-107488095D01*
%TO.C,SW1*%
X113676666Y-87304761D02*
X113819523Y-87352380D01*
X114057619Y-87352380D01*
X114152857Y-87304761D01*
X114200476Y-87257142D01*
X114248095Y-87161904D01*
X114248095Y-87066666D01*
X114200476Y-86971428D01*
X114152857Y-86923809D01*
X114057619Y-86876190D01*
X113867142Y-86828571D01*
X113771904Y-86780952D01*
X113724285Y-86733333D01*
X113676666Y-86638095D01*
X113676666Y-86542857D01*
X113724285Y-86447619D01*
X113771904Y-86400000D01*
X113867142Y-86352380D01*
X114105238Y-86352380D01*
X114248095Y-86400000D01*
X114581428Y-86352380D02*
X114819523Y-87352380D01*
X115010000Y-86638095D01*
X115200476Y-87352380D01*
X115438571Y-86352380D01*
X116343333Y-87352380D02*
X115771904Y-87352380D01*
X116057619Y-87352380D02*
X116057619Y-86352380D01*
X115962380Y-86495238D01*
X115867142Y-86590476D01*
X115771904Y-86638095D01*
%TO.C,R3*%
X124293333Y-101672380D02*
X123960000Y-101196190D01*
X123721904Y-101672380D02*
X123721904Y-100672380D01*
X124102857Y-100672380D01*
X124198095Y-100720000D01*
X124245714Y-100767619D01*
X124293333Y-100862857D01*
X124293333Y-101005714D01*
X124245714Y-101100952D01*
X124198095Y-101148571D01*
X124102857Y-101196190D01*
X123721904Y-101196190D01*
X124626666Y-100672380D02*
X125245714Y-100672380D01*
X124912380Y-101053333D01*
X125055238Y-101053333D01*
X125150476Y-101100952D01*
X125198095Y-101148571D01*
X125245714Y-101243809D01*
X125245714Y-101481904D01*
X125198095Y-101577142D01*
X125150476Y-101624761D01*
X125055238Y-101672380D01*
X124769523Y-101672380D01*
X124674285Y-101624761D01*
X124626666Y-101577142D01*
%TO.C,R2*%
X108808333Y-101672380D02*
X108475000Y-101196190D01*
X108236904Y-101672380D02*
X108236904Y-100672380D01*
X108617857Y-100672380D01*
X108713095Y-100720000D01*
X108760714Y-100767619D01*
X108808333Y-100862857D01*
X108808333Y-101005714D01*
X108760714Y-101100952D01*
X108713095Y-101148571D01*
X108617857Y-101196190D01*
X108236904Y-101196190D01*
X109189285Y-100767619D02*
X109236904Y-100720000D01*
X109332142Y-100672380D01*
X109570238Y-100672380D01*
X109665476Y-100720000D01*
X109713095Y-100767619D01*
X109760714Y-100862857D01*
X109760714Y-100958095D01*
X109713095Y-101100952D01*
X109141666Y-101672380D01*
X109760714Y-101672380D01*
%TO.C,R1*%
X114133333Y-97862380D02*
X113800000Y-97386190D01*
X113561904Y-97862380D02*
X113561904Y-96862380D01*
X113942857Y-96862380D01*
X114038095Y-96910000D01*
X114085714Y-96957619D01*
X114133333Y-97052857D01*
X114133333Y-97195714D01*
X114085714Y-97290952D01*
X114038095Y-97338571D01*
X113942857Y-97386190D01*
X113561904Y-97386190D01*
X115085714Y-97862380D02*
X114514285Y-97862380D01*
X114800000Y-97862380D02*
X114800000Y-96862380D01*
X114704761Y-97005238D01*
X114609523Y-97100476D01*
X114514285Y-97148095D01*
%TO.C,J3*%
X103806666Y-94912380D02*
X103806666Y-95626666D01*
X103759047Y-95769523D01*
X103663809Y-95864761D01*
X103520952Y-95912380D01*
X103425714Y-95912380D01*
X104187619Y-94912380D02*
X104806666Y-94912380D01*
X104473333Y-95293333D01*
X104616190Y-95293333D01*
X104711428Y-95340952D01*
X104759047Y-95388571D01*
X104806666Y-95483809D01*
X104806666Y-95721904D01*
X104759047Y-95817142D01*
X104711428Y-95864761D01*
X104616190Y-95912380D01*
X104330476Y-95912380D01*
X104235238Y-95864761D01*
X104187619Y-95817142D01*
%TO.C,J2*%
X126666666Y-103802380D02*
X126666666Y-104516666D01*
X126619047Y-104659523D01*
X126523809Y-104754761D01*
X126380952Y-104802380D01*
X126285714Y-104802380D01*
X127095238Y-103897619D02*
X127142857Y-103850000D01*
X127238095Y-103802380D01*
X127476190Y-103802380D01*
X127571428Y-103850000D01*
X127619047Y-103897619D01*
X127666666Y-103992857D01*
X127666666Y-104088095D01*
X127619047Y-104230952D01*
X127047619Y-104802380D01*
X127666666Y-104802380D01*
%TO.C,J1*%
X103806666Y-103802380D02*
X103806666Y-104516666D01*
X103759047Y-104659523D01*
X103663809Y-104754761D01*
X103520952Y-104802380D01*
X103425714Y-104802380D01*
X104806666Y-104802380D02*
X104235238Y-104802380D01*
X104520952Y-104802380D02*
X104520952Y-103802380D01*
X104425714Y-103945238D01*
X104330476Y-104040476D01*
X104235238Y-104088095D01*
%TO.C,J0*%
X119892380Y-123523333D02*
X120606666Y-123523333D01*
X120749523Y-123570952D01*
X120844761Y-123666190D01*
X120892380Y-123809047D01*
X120892380Y-123904285D01*
X119892380Y-122856666D02*
X119892380Y-122761428D01*
X119940000Y-122666190D01*
X119987619Y-122618571D01*
X120082857Y-122570952D01*
X120273333Y-122523333D01*
X120511428Y-122523333D01*
X120701904Y-122570952D01*
X120797142Y-122618571D01*
X120844761Y-122666190D01*
X120892380Y-122761428D01*
X120892380Y-122856666D01*
X120844761Y-122951904D01*
X120797142Y-122999523D01*
X120701904Y-123047142D01*
X120511428Y-123094761D01*
X120273333Y-123094761D01*
X120082857Y-123047142D01*
X119987619Y-122999523D01*
X119940000Y-122951904D01*
X119892380Y-122856666D01*
%TO.C,D1*%
X108236904Y-97862380D02*
X108236904Y-96862380D01*
X108475000Y-96862380D01*
X108617857Y-96910000D01*
X108713095Y-97005238D01*
X108760714Y-97100476D01*
X108808333Y-97290952D01*
X108808333Y-97433809D01*
X108760714Y-97624285D01*
X108713095Y-97719523D01*
X108617857Y-97814761D01*
X108475000Y-97862380D01*
X108236904Y-97862380D01*
X109760714Y-97862380D02*
X109189285Y-97862380D01*
X109475000Y-97862380D02*
X109475000Y-96862380D01*
X109379761Y-97005238D01*
X109284523Y-97100476D01*
X109189285Y-97148095D01*
%TO.C,C3*%
X113888333Y-101577142D02*
X113840714Y-101624761D01*
X113697857Y-101672380D01*
X113602619Y-101672380D01*
X113459761Y-101624761D01*
X113364523Y-101529523D01*
X113316904Y-101434285D01*
X113269285Y-101243809D01*
X113269285Y-101100952D01*
X113316904Y-100910476D01*
X113364523Y-100815238D01*
X113459761Y-100720000D01*
X113602619Y-100672380D01*
X113697857Y-100672380D01*
X113840714Y-100720000D01*
X113888333Y-100767619D01*
X114221666Y-100672380D02*
X114840714Y-100672380D01*
X114507380Y-101053333D01*
X114650238Y-101053333D01*
X114745476Y-101100952D01*
X114793095Y-101148571D01*
X114840714Y-101243809D01*
X114840714Y-101481904D01*
X114793095Y-101577142D01*
X114745476Y-101624761D01*
X114650238Y-101672380D01*
X114364523Y-101672380D01*
X114269285Y-101624761D01*
X114221666Y-101577142D01*
%TO.C,C2*%
X118968333Y-101577142D02*
X118920714Y-101624761D01*
X118777857Y-101672380D01*
X118682619Y-101672380D01*
X118539761Y-101624761D01*
X118444523Y-101529523D01*
X118396904Y-101434285D01*
X118349285Y-101243809D01*
X118349285Y-101100952D01*
X118396904Y-100910476D01*
X118444523Y-100815238D01*
X118539761Y-100720000D01*
X118682619Y-100672380D01*
X118777857Y-100672380D01*
X118920714Y-100720000D01*
X118968333Y-100767619D01*
X119349285Y-100767619D02*
X119396904Y-100720000D01*
X119492142Y-100672380D01*
X119730238Y-100672380D01*
X119825476Y-100720000D01*
X119873095Y-100767619D01*
X119920714Y-100862857D01*
X119920714Y-100958095D01*
X119873095Y-101100952D01*
X119301666Y-101672380D01*
X119920714Y-101672380D01*
%TO.C,C1*%
X119213333Y-97767142D02*
X119165714Y-97814761D01*
X119022857Y-97862380D01*
X118927619Y-97862380D01*
X118784761Y-97814761D01*
X118689523Y-97719523D01*
X118641904Y-97624285D01*
X118594285Y-97433809D01*
X118594285Y-97290952D01*
X118641904Y-97100476D01*
X118689523Y-97005238D01*
X118784761Y-96910000D01*
X118927619Y-96862380D01*
X119022857Y-96862380D01*
X119165714Y-96910000D01*
X119213333Y-96957619D01*
X120165714Y-97862380D02*
X119594285Y-97862380D01*
X119880000Y-97862380D02*
X119880000Y-96862380D01*
X119784761Y-97005238D01*
X119689523Y-97100476D01*
X119594285Y-97148095D01*
%TD*%
M02*
